<svg width="24" height="24" viewBox="0 0 24 24" fill="none" xmlns="http://www.w3.org/2000/svg">
<path d="M22.7 17.5004L14.6 3.50035C13.8 2.10035 11.9 1.60035 10.5 2.40035C10 2.70035 9.60001 3.10035 9.40001 3.50035L1.30001 17.5004C0.500011 18.9004 1.00001 20.8004 2.40001 21.6004C2.90001 21.9004 3.40001 22.0004 3.90001 22.0004H20C21.7 22.0004 23 20.6004 23 19.0004C23.1 18.4004 22.9 17.9004 22.7 17.5004ZM12 18.0004C11.4 18.0004 11 17.6004 11 17.0004C11 16.4004 11.4 16.0004 12 16.0004C12.6 16.0004 13 16.4004 13 17.0004C13 17.6004 12.6 18.0004 12 18.0004ZM13 13.0004C13 13.6004 12.6 14.0004 12 14.0004C11.4 14.0004 11 13.6004 11 13.0004V9.00035C11 8.40035 11.4 8.00035 12 8.00035C12.6 8.00035 13 8.40035 13 9.00035V13.0004Z" fill="black"/>
</svg>
